<mxfile host="app.diagrams.net" modified="2023-12-29T06:50:31.176Z" agent="Mozilla/5.0 (Macintosh; Intel Mac OS X 10_15_7) AppleWebKit/537.36 (KHTML, like Gecko) Chrome/120.0.0.0 Safari/537.36" version="22.1.15" etag="KpnH88vhf9aN-KU0D6Zh" type="github">
  <diagram name="第 1 页" id="zdN3fulcoZOxIK4aAL8L">
    <mxGraphModel>
      <root>
        <mxCell id="0" />
        <mxCell id="1" parent="0" />
      </root>
    </mxGraphModel>
  </diagram>
</mxfile>
